<mxfile host="app.diagrams.net" modified="2023-05-03T08:57:09.851Z" agent="Mozilla/5.0 (Windows NT 10.0; Win64; x64) AppleWebKit/537.36 (KHTML, like Gecko) Chrome/112.0.0.0 Safari/537.36" etag="3TZG95fZtfrHpIjRobVn" version="21.2.6" type="github">
  <diagram name="第 1 页" id="vlGPaDkktndjyFfZkC-w">
    <mxGraphModel dx="545" dy="250" grid="0" gridSize="10" guides="1" tooltips="1" connect="1" arrows="1" fold="1" page="1" pageScale="1" pageWidth="827" pageHeight="1169" math="0" shadow="0">
      <root>
        <mxCell id="0" />
        <mxCell id="1" parent="0" />
        <mxCell id="EKfRWMLyIXaZCAtgULfe-1" value="游客信息" style="rounded=0;whiteSpace=wrap;html=1;" vertex="1" parent="1">
          <mxGeometry x="30" y="130" width="110" height="40" as="geometry" />
        </mxCell>
        <mxCell id="EKfRWMLyIXaZCAtgULfe-2" value="预约信息" style="rounded=0;whiteSpace=wrap;html=1;" vertex="1" parent="1">
          <mxGeometry x="30" y="200" width="110" height="40" as="geometry" />
        </mxCell>
        <mxCell id="EKfRWMLyIXaZCAtgULfe-4" value="信息管理系统" style="ellipse;whiteSpace=wrap;html=1;" vertex="1" parent="1">
          <mxGeometry x="240" y="140" width="120" height="80" as="geometry" />
        </mxCell>
        <mxCell id="EKfRWMLyIXaZCAtgULfe-5" value="游客满意度调查与总结报告" style="rounded=0;whiteSpace=wrap;html=1;" vertex="1" parent="1">
          <mxGeometry x="520" y="100" width="120" height="60" as="geometry" />
        </mxCell>
        <mxCell id="EKfRWMLyIXaZCAtgULfe-6" value="意外事件报告" style="rounded=0;whiteSpace=wrap;html=1;" vertex="1" parent="1">
          <mxGeometry x="520" y="200" width="120" height="60" as="geometry" />
        </mxCell>
        <mxCell id="EKfRWMLyIXaZCAtgULfe-7" value="分析报告" style="rounded=0;whiteSpace=wrap;html=1;" vertex="1" parent="1">
          <mxGeometry x="520" y="300" width="120" height="60" as="geometry" />
        </mxCell>
        <mxCell id="EKfRWMLyIXaZCAtgULfe-8" value="" style="endArrow=classic;html=1;rounded=0;entryX=-0.033;entryY=0.617;entryDx=0;entryDy=0;entryPerimeter=0;exitX=1.017;exitY=0.625;exitDx=0;exitDy=0;exitPerimeter=0;" edge="1" parent="1" source="EKfRWMLyIXaZCAtgULfe-4" target="EKfRWMLyIXaZCAtgULfe-5">
          <mxGeometry width="50" height="50" relative="1" as="geometry">
            <mxPoint x="350" y="340" as="sourcePoint" />
            <mxPoint x="400" y="290" as="targetPoint" />
            <Array as="points">
              <mxPoint x="360" y="190" />
            </Array>
          </mxGeometry>
        </mxCell>
        <mxCell id="EKfRWMLyIXaZCAtgULfe-9" value="" style="endArrow=classic;html=1;rounded=0;entryX=-0.025;entryY=0.617;entryDx=0;entryDy=0;entryPerimeter=0;exitX=1.017;exitY=0.625;exitDx=0;exitDy=0;exitPerimeter=0;" edge="1" parent="1" target="EKfRWMLyIXaZCAtgULfe-6">
          <mxGeometry width="50" height="50" relative="1" as="geometry">
            <mxPoint x="372" y="200" as="sourcePoint" />
            <mxPoint x="526" y="147" as="targetPoint" />
            <Array as="points">
              <mxPoint x="360" y="200" />
              <mxPoint x="370" y="200" />
            </Array>
          </mxGeometry>
        </mxCell>
        <mxCell id="EKfRWMLyIXaZCAtgULfe-10" value="" style="endArrow=classic;html=1;rounded=0;entryX=0;entryY=0.5;entryDx=0;entryDy=0;exitX=0.908;exitY=0.838;exitDx=0;exitDy=0;exitPerimeter=0;" edge="1" parent="1" source="EKfRWMLyIXaZCAtgULfe-4" target="EKfRWMLyIXaZCAtgULfe-7">
          <mxGeometry width="50" height="50" relative="1" as="geometry">
            <mxPoint x="382" y="210" as="sourcePoint" />
            <mxPoint x="536" y="157" as="targetPoint" />
            <Array as="points" />
          </mxGeometry>
        </mxCell>
        <mxCell id="EKfRWMLyIXaZCAtgULfe-11" value="" style="endArrow=classic;html=1;rounded=0;entryX=0;entryY=0.5;entryDx=0;entryDy=0;exitX=1;exitY=0.5;exitDx=0;exitDy=0;" edge="1" parent="1" source="EKfRWMLyIXaZCAtgULfe-1" target="EKfRWMLyIXaZCAtgULfe-4">
          <mxGeometry width="50" height="50" relative="1" as="geometry">
            <mxPoint x="140" y="170" as="sourcePoint" />
            <mxPoint x="190" y="120" as="targetPoint" />
          </mxGeometry>
        </mxCell>
        <mxCell id="EKfRWMLyIXaZCAtgULfe-13" value="" style="endArrow=classic;html=1;rounded=0;exitX=1;exitY=0.5;exitDx=0;exitDy=0;entryX=0;entryY=0.625;entryDx=0;entryDy=0;entryPerimeter=0;" edge="1" parent="1" source="EKfRWMLyIXaZCAtgULfe-2" target="EKfRWMLyIXaZCAtgULfe-4">
          <mxGeometry width="50" height="50" relative="1" as="geometry">
            <mxPoint x="160" y="280" as="sourcePoint" />
            <mxPoint x="210" y="230" as="targetPoint" />
          </mxGeometry>
        </mxCell>
        <mxCell id="EKfRWMLyIXaZCAtgULfe-14" value="0级数据流图：" style="text;html=1;align=center;verticalAlign=middle;resizable=0;points=[];autosize=1;strokeColor=none;fillColor=none;" vertex="1" parent="1">
          <mxGeometry x="4" y="59" width="97" height="26" as="geometry" />
        </mxCell>
        <mxCell id="EKfRWMLyIXaZCAtgULfe-15" value="1级数据流图：" style="text;html=1;align=center;verticalAlign=middle;resizable=0;points=[];autosize=1;strokeColor=none;fillColor=none;" vertex="1" parent="1">
          <mxGeometry x="7" y="382" width="97" height="26" as="geometry" />
        </mxCell>
        <mxCell id="EKfRWMLyIXaZCAtgULfe-16" value="游客信息" style="rounded=0;whiteSpace=wrap;html=1;" vertex="1" parent="1">
          <mxGeometry x="13" y="428" width="79" height="25" as="geometry" />
        </mxCell>
        <mxCell id="EKfRWMLyIXaZCAtgULfe-17" value="1.1游客登记" style="ellipse;whiteSpace=wrap;html=1;" vertex="1" parent="1">
          <mxGeometry x="145" y="414.5" width="84" height="52" as="geometry" />
        </mxCell>
      </root>
    </mxGraphModel>
  </diagram>
</mxfile>
